# xmcd
#
# Track frame offsets:
#	150
#	24580
#	42934
#	55155
#	71601
#	88647
#	101249
#	127062
#	148792
#	164908
#	185385
#	197513
#	213185
#	231381
#
# Disc length: 3358 seconds
#
# Revision: 0
# Processed by: cddbd v1.5.2PL0 Copyright (c) Steve Scherf et al.
# Submitted via: EZCDAudioConverter 2.4.0.1
#
DISCID=d20d1c0e
DTITLE=Bruno and Marrone Feat. Chitãozinho and Xororó - Clássicos (Ao Vivo) [CD 2)
DYEAR=2016
DGENRE=Sertanejo
TTITLE0=Bruno and Marrone Feat. Chitãozinho and Xororó - Vá Pro Inferno Com Seu Am
TTITLE0=or - Galopeira (Galopera)
TTITLE1=Bruno and Marrone - Agora (Ahora Dices Que Me Amas)
TTITLE2=Bruno and Marrone - Isso Cê Não Conta
TTITLE3=Bruno and Marrone Feat. Chitãozinho and Xororó - Palavras São Palavras
TTITLE4=Bruno and Marrone Feat. Chitãozinho and Xororó - Eu Vou Te Esquecer
TTITLE5=Bruno and Marrone Feat. Chitãozinho and Xororó - Fio De Cabelo
TTITLE6=Bruno and Marrone Feat. Chitãozinho and Xororó - Evidências
TTITLE7=Bruno and Marrone Feat. Chitãozinho and Xororó - Por Um Minuto (Por Un Min
TTITLE7=uto)
TTITLE8=Bruno and Marrone Feat. Chitãozinho and Xororó - Fruto Especial - Vida Vaz
TTITLE8=ia
TTITLE9=Bruno and Marrone Feat. Chitãozinho and Xororó - Amor De Carnaval - Um Bom
TTITLE9=Perdedor (Un Buen Perdedor)
TTITLE10=Bruno and Marrone Feat. Chitãozinho and Xororó - Dormi Na Praça 
TTITLE11=Bruno and Marrone Feat. Chitãozinho and Xororó - Boate Azul - Ainda Ontem
TTITLE11=Chorei De Saudade
TTITLE12=Bruno and Marrone Feat. Chitãozinho and Xororó - Nascemos Pra Cantar (Sha
TTITLE12=mbala)
TTITLE13=Bruno and Marrone Feat. Chitãozinho and Xororó - Força Estranha
EXTD=
EXTT0=
EXTT1=
EXTT2=
EXTT3=
EXTT4=
EXTT5=
EXTT6=
EXTT7=
EXTT8=
EXTT9=
EXTT10=
EXTT11=
EXTT12=
EXTT13=
PLAYORDER=
